<svg width="28" height="27" viewBox="0 0 28 27" fill="none" xmlns="http://www.w3.org/2000/svg">
<path d="M27.5805 12.5823L13.2082 0.147893C13.0979 0.0530897 12.9571 0 12.8088 0H9.44206C9.16054 0 9.0312 0.348876 9.24424 0.530899L22.5666 12.059H0.304337C0.136952 12.059 0 12.1955 0 12.3624V14.6376C0 14.8045 0.136952 14.941 0.304337 14.941H22.5628L9.24043 26.4691C9.0274 26.6549 9.15674 27 9.43825 27H12.9191C12.9914 27 13.0637 26.9735 13.1169 26.9242L27.5805 14.4177C27.7122 14.3035 27.8178 14.1625 27.8902 14.0042C27.9626 13.8459 28 13.674 28 13.5C28 13.326 27.9626 13.1541 27.8902 12.9958C27.8178 12.8375 27.7122 12.6965 27.5805 12.5823Z" fill="white"/>
</svg>
